<?xml version="1.0" encoding="utf-8"?>
<!-- Generator: Adobe Illustrator 22.1.0, SVG Export Plug-In . SVG Version: 6.00 Build 0)  -->
<svg version="1.1" id="Layer_1" xmlns="http://www.w3.org/2000/svg" xmlns:xlink="http://www.w3.org/1999/xlink" x="0px" y="0px"
	 viewBox="0 0 150 39" style="enable-background:new 0 0 150 39;" xml:space="preserve">
<style type="text/css">
	.st0{fill:#0366D6;}
</style>
<g>
	<path class="st0" d="M34.1,17.4H22.9c-0.3,0-0.5,0.2-0.5,0.5v5.5c0,0.3,0.2,0.5,0.5,0.5h4.4v6.8c0,0-1,0.3-3.7,0.3
		c-3.2,0-7.7-1.2-7.7-11c0-9.8,4.6-11.1,9-11.1c3.8,0,5.4,0.7,6.4,1C31.7,10,32,9.7,32,9.4l1.2-5.3c0-0.1,0-0.3-0.2-0.4
		c-0.4-0.3-3-1.7-9.5-1.7C16.1,2,8.4,5.2,8.4,20.5C8.4,35.7,17.2,38,24.6,38c6.1,0,9.8-2.6,9.8-2.6c0.2-0.1,0.2-0.3,0.2-0.4V17.9
		C34.6,17.6,34.4,17.4,34.1,17.4z"/>
	<path class="st0" d="M91.7,3.8c0-0.3-0.2-0.5-0.5-0.5h-6.3c-0.3,0-0.5,0.2-0.5,0.5c0,0,0,12.2,0,12.2h-9.8V3.8
		c0-0.3-0.2-0.5-0.5-0.5h-6.3c-0.3,0-0.5,0.2-0.5,0.5v33c0,0.3,0.2,0.5,0.5,0.5h6.3c0.3,0,0.5-0.2,0.5-0.5V22.7h9.8
		c0,0,0,14.1,0,14.1c0,0.3,0.2,0.5,0.5,0.5h6.3c0.3,0,0.5-0.2,0.5-0.5V3.8z"/>
	<g>
		<g>
			<path class="st0" d="M46,8.2c0-2.3-1.8-4.1-4.1-4.1c-2.2,0-4.1,1.8-4.1,4.1c0,2.3,1.8,4.1,4.1,4.1C44.1,12.3,46,10.4,46,8.2z"/>
			<path class="st0" d="M45.5,29.8c0-0.8,0-15.2,0-15.2c0-0.3-0.2-0.5-0.5-0.5h-6.3c-0.3,0-0.5,0.3-0.5,0.6c0,0,0,18.3,0,21.8
				c0,0.6,0.4,0.8,0.9,0.8c0,0,2.7,0,5.7,0c0.6,0,0.8-0.3,0.8-0.8C45.5,35.3,45.5,30.7,45.5,29.8z"/>
		</g>
	</g>
	<path class="st0" d="M115.7,14.1h-6.3c-0.3,0-0.5,0.2-0.5,0.5v16.2c0,0-1.6,1.2-3.8,1.2c-2.3,0-2.9-1-2.9-3.2c0-2.2,0-14.1,0-14.1
		c0-0.3-0.2-0.5-0.5-0.5h-6.3c-0.3,0-0.5,0.2-0.5,0.5c0,0,0,8.6,0,15.2c0,6.6,3.7,8.2,8.7,8.2c4.1,0,7.4-2.3,7.4-2.3
		s0.2,1.2,0.2,1.3c0.1,0.1,0.3,0.3,0.5,0.3l4,0c0.3,0,0.5-0.2,0.5-0.5l0-22.1C116.2,14.4,116,14.1,115.7,14.1z"/>
	<path class="st0" d="M132.7,13.4c-3.5,0-6,1.6-6,1.6V3.8c0-0.3-0.2-0.5-0.5-0.5h-6.3c-0.3,0-0.5,0.2-0.5,0.5v33
		c0,0.3,0.2,0.5,0.5,0.5c0,0,4.4,0,4.4,0c0.2,0,0.3-0.1,0.5-0.3c0.1-0.2,0.3-1.5,0.3-1.5s2.6,2.4,7.5,2.4c5.7,0,9-2.9,9-13.1
		C141.6,14.7,136.3,13.4,132.7,13.4z M130.3,32c-2.2-0.1-3.6-1-3.6-1V20.5c0,0,1.5-0.9,3.2-1c2.3-0.2,4.4,0.5,4.4,5.8
		C134.3,31,133.3,32.1,130.3,32z"/>
	<path class="st0" d="M63.6,14.1h-4.7c0,0,0-6.2,0-6.2c0-0.2-0.1-0.4-0.4-0.4h-6.4c-0.3,0-0.4,0.1-0.4,0.4v6.5c0,0-3.2,0.8-3.4,0.8
		c-0.2,0.1-0.4,0.3-0.4,0.5v4.1c0,0.3,0.2,0.5,0.5,0.5h3.3c0,0,0,4.2,0,9.8c0,7.2,5.1,8,8.5,8c1.6,0,3.4-0.5,3.7-0.6
		c0.2-0.1,0.3-0.3,0.3-0.5l0-4.5c0-0.3-0.2-0.5-0.5-0.5c-0.3,0-1,0.1-1.7,0.1c-2.3,0-3.1-1.1-3.1-2.5c0-1.4,0-9.3,0-9.3h4.7
		c0.3,0,0.5-0.2,0.5-0.5v-5.1C64.1,14.3,63.9,14.1,63.6,14.1z"/>
</g>
</svg>
