<?xml version="1.0" encoding="utf-8"?>
<!-- Generator: Adobe Illustrator 22.1.0, SVG Export Plug-In . SVG Version: 6.00 Build 0)  -->
<svg version="1.1" id="Layer_1" xmlns="http://www.w3.org/2000/svg" xmlns:xlink="http://www.w3.org/1999/xlink" x="0px" y="0px"
	 viewBox="0 0 123 136" style="enable-background:new 0 0 123 136;" xml:space="preserve">
<style type="text/css">
	.st0{fill:#F5C146;}
</style>
<g>
	<path class="st0" d="M58.6,124.1H24.3c-2.7,0-4.9-2.2-4.9-4.9V15.8c0-2.7,2.2-4.9,4.9-4.9h49v24.6c0,5.5,4.4,9.9,9.8,9.9h19.6v73.8
		c0,2.7-2.2,4.9-4.9,4.9H63.4V84.8l15.9,16l3.7-3.7L61,75L39,97.1l3.7,3.7l15.9-16V124.1L58.6,124.1z M75.7,6H24.3
		c-5.4,0-9.8,4.4-9.8,9.9v103.2c0,5.5,4.4,9.9,9.8,9.9h73.4c5.4,0,9.8-4.4,9.8-9.8V40.5L78.1,6L75.7,6L75.7,6z M78.1,13.4l23,27.1
		H83c-2.7,0-4.9-2.2-4.9-5L78.1,13.4L78.1,13.4z"/>
</g>
</svg>
