<?xml version="1.0" encoding="utf-8"?>
<!-- Generator: Adobe Illustrator 22.1.0, SVG Export Plug-In . SVG Version: 6.00 Build 0)  -->
<svg version="1.1" id="Layer_1" xmlns="http://www.w3.org/2000/svg" xmlns:xlink="http://www.w3.org/1999/xlink" x="0px" y="0px"
	 viewBox="0 0 517.8 156.4" style="enable-background:new 0 0 517.8 156.4;" xml:space="preserve">
<style type="text/css">
	.st0{fill:#80B045;}
</style>
<g>
	<g>
		<path class="st0" d="M47.8,37.9c3.1,3.1,3.1,8.1,0,11.2c-3.1,3.1-8.1,3.1-11.2,0L22.2,34.7c-3.1-3.1-3.1-8.1,0-11.2
			s8.1-3.1,11.2,0L47.8,37.9z"/>
	</g>
	<g>
		<path class="st0" d="M83.8,29.6c0,4.4-3.6,7.9-7.9,7.9c-4.4,0-7.9-3.6-7.9-7.9V9.2c0-4.4,3.6-7.9,7.9-7.9c4.4,0,7.9,3.6,7.9,7.9
			V29.6z"/>
	</g>
	<g>
		<path class="st0" d="M67.9,124.6c0-4.4,3.6-7.9,7.9-7.9c4.4,0,7.9,3.6,7.9,7.9V145c0,4.4-3.6,7.9-7.9,7.9c-4.4,0-7.9-3.6-7.9-7.9
			V124.6z"/>
	</g>
	<g>
		<path class="st0" d="M36.6,105.1c3.1-3.1,8.1-3.1,11.2,0c3.1,3.1,3.1,8.1,0,11.2l-14.4,14.4c-3.1,3.1-8.1,3.1-11.2,0
			c-3.1-3.1-3.1-8.1,0-11.2L36.6,105.1z"/>
	</g>
	<g>
		<path class="st0" d="M28.3,69.1c4.4,0,7.9,3.6,7.9,7.9c0,4.4-3.6,7.9-7.9,7.9H7.9C3.6,85,0,81.5,0,77.1s3.6-7.9,7.9-7.9L28.3,69.1
			L28.3,69.1z"/>
	</g>
</g>
<g>
	<path class="st0" d="M199.8,113.8c0-6-2.1-10.6-6.4-13.8c-4.2-3.2-11.9-6.6-22.9-10.2s-19.7-7.1-26.2-10.5
		C126.8,69.8,118,57.1,118,41c0-8.3,2.3-15.8,7-22.3s11.4-11.6,20.2-15.3s18.7-5.5,29.6-5.5c11,0,20.8,2,29.5,6
		c8.6,4,15.3,9.6,20.1,16.9c4.1,6.3,6.4,13.3,7,21c0.2,2-1.4,3.8-3.5,3.8h-24.8c-1.8,0-3.3-1.4-3.5-3.1c-0.6-5.6-2.8-10-6.5-13.3
		c-4.5-3.9-10.7-5.9-18.8-5.9c-7.8,0-13.8,1.6-18.1,4.9s-6.5,7.6-6.5,13c0,5,2.5,9.2,7.6,12.6s12.5,6.6,22.3,9.5
		c18.1,5.4,31.3,12.2,39.5,20.2c8.3,8.1,12.4,18.1,12.4,30.1c0,13.4-5.1,23.8-15.2,31.4c-10.1,7.6-23.7,11.4-40.8,11.4
		c-11.9,0-22.7-2.2-32.4-6.5s-17.2-10.3-22.3-17.9c-4.5-6.6-7-14.2-7.6-22.6c-0.1-2,1.5-3.7,3.5-3.7h24.9c1.8,0,3.3,1.4,3.5,3.2
		c1.2,14.9,11.4,22.3,30.4,22.3c7.6,0,13.5-1.5,17.7-4.6C197.6,123.6,199.8,119.3,199.8,113.8z"/>
	<path class="st0" d="M375.1,154.3h-26.3c-1.2,0-2.4-0.6-3-1.7l-54.4-89.2c-1.8-3-6.5-1.7-6.5,1.8v85.6c0,1.9-1.6,3.5-3.5,3.5h-24.8
		c-1.9,0-3.5-1.6-3.5-3.5V3.5c0-1.9,1.6-3.5,3.5-3.5H283c1.2,0,2.4,0.6,3,1.7l54.5,89.4c1.8,3,6.5,1.7,6.5-1.8V3.5
		c0-1.9,1.6-3.5,3.5-3.5h24.7c1.9,0,3.5,1.6,3.5,3.5v147.3C378.6,152.7,377.1,154.3,375.1,154.3z"/>
	<path class="st0" d="M459.8,62.6l28-60.6c0.6-1.2,1.8-2,3.2-2h26.8c2.6,0,4.3,2.8,3.1,5.1l-47.6,92.5c-0.3,0.5-0.4,1-0.4,1.6v51.6
		c0,1.9-1.6,3.5-3.5,3.5H444c-1.9,0-3.5-1.6-3.5-3.5V99.2c0-0.6-0.1-1.1-0.4-1.6L392.5,5.1C391.3,2.8,393,0,395.6,0h26.9
		c1.4,0,2.6,0.8,3.2,2l27.8,60.6C454.7,65.3,458.6,65.3,459.8,62.6z"/>
</g>
</svg>
