<?xml version="1.0" encoding="utf-8"?>
<!-- Generator: Adobe Illustrator 22.1.0, SVG Export Plug-In . SVG Version: 6.00 Build 0)  -->
<svg version="1.1" id="Layer_1" xmlns="http://www.w3.org/2000/svg" xmlns:xlink="http://www.w3.org/1999/xlink" x="0px" y="0px"
	 viewBox="0 0 512 512" style="enable-background:new 0 0 512 512;" xml:space="preserve">
<style type="text/css">
	.st0{fill:#A94442;}
</style>
<title></title>
<g id="icomoon-ignore">
</g>
<path class="st0" d="M256,46.4L470.6,474H41.4C41.4,474,256,46.4,256,46.4z M256,0c-11,0-22.1,7.4-30.4,22.3L7,457.9
	C-9.7,487.6,4.5,512,38.7,512h434.7c34.1,0,48.4-24.4,31.6-54.1h0L286.4,22.3C278.1,7.4,267,0,256,0L256,0L256,0z"/>
<path class="st0" d="M288,416c0,17.7-14.3,32-32,32s-32-14.3-32-32s14.3-32,32-32S288,398.3,288,416z"/>
<path class="st0" d="M256,352c-17.7,0-32-14.3-32-32v-96c0-17.7,14.3-32,32-32s32,14.3,32,32v96C288,337.7,273.7,352,256,352z"/>
</svg>
