<?xml version="1.0" encoding="utf-8"?>
<!-- Generator: Adobe Illustrator 22.1.0, SVG Export Plug-In . SVG Version: 6.00 Build 0)  -->
<svg version="1.1" id="Layer_1" xmlns="http://www.w3.org/2000/svg" xmlns:xlink="http://www.w3.org/1999/xlink" x="0px" y="0px"
	 viewBox="0 0 160 140" style="enable-background:new 0 0 160 140;" xml:space="preserve">
<g>
	<g>
		<path d="M126.2,135.3H49.5V27.8h76.8V135.3z M51.4,133.4h72.9V29.7H51.4V133.4z"/>
	</g>
	<g>
		<polygon points="132.7,129.9 127.9,129.9 127.9,128 130.8,128 130.8,35.1 127.9,35.1 127.9,33.2 132.7,33.2 		"/>
	</g>
	<g>
		<polygon points="44.5,128.6 38.6,21.3 115.2,17 115.8,26.3 113.8,26.4 113.4,19.1 94.3,20.1 40.6,23.1 46.4,126.6 47.8,126.5 
			47.9,128.5 		"/>
	</g>
	<g>
		<g>
			<path d="M103.7,127.4c-6.7,0-12.2-5.5-12.2-12.2c0-6.7,5.5-12.2,12.2-12.2c6.7,0,12.2,5.5,12.2,12.2
				C115.9,121.9,110.5,127.4,103.7,127.4z M103.7,104.9c-5.7,0-10.3,4.6-10.3,10.3c0,5.7,4.6,10.3,10.3,10.3
				c5.7,0,10.3-4.6,10.3-10.3C114,109.5,109.4,104.9,103.7,104.9z"/>
		</g>
		<g>
			<polygon points="102.3,120.3 97.5,115.5 98.8,114.1 102.3,117.6 109.1,110.7 110.5,112.1 			"/>
		</g>
	</g>
	<g>
		<g>
			<rect x="60.8" y="102.9" width="24.3" height="1.9"/>
		</g>
		<g>
			<g>
				<rect x="74.3" y="40.3" width="15.3" height="1.9"/>
			</g>
			<g>
				<rect x="93.3" y="40.3" width="5.3" height="1.9"/>
			</g>
		</g>
		<g>
			<rect x="63.3" y="49.6" width="46.2" height="1.9"/>
		</g>
		<g>
			<rect x="66.7" y="58.9" width="48" height="1.9"/>
		</g>
		<g>
			<rect x="63.3" y="68.2" width="46.1" height="1.9"/>
		</g>
		<g>
			<rect x="63.3" y="77.5" width="46.1" height="1.9"/>
		</g>
		<g>
			<rect x="77" y="86.8" width="37.7" height="1.9"/>
		</g>
		<g>
			<rect x="60.8" y="118" width="15.3" height="1.9"/>
		</g>
	</g>
	<g>
		<g>
			<rect x="38.4" y="5.1" transform="matrix(0.9958 -9.142441e-02 9.142441e-02 0.9958 -0.7565 3.6459)" width="1.9" height="10"/>
		</g>
		<g>
			<rect x="31.8" y="9" transform="matrix(0.756 -0.6545 0.6545 0.756 -0.6983 24.6999)" width="1.9" height="8.5"/>
		</g>
		<g>
			
				<rect x="28.1" y="16.6" transform="matrix(5.651022e-02 -0.9984 0.9984 5.651022e-02 6.2693 49.0007)" width="1.9" height="9.1"/>
		</g>
	</g>
</g>
</svg>
