<?xml version="1.0" encoding="utf-8"?>
<!-- Generator: Adobe Illustrator 22.1.0, SVG Export Plug-In . SVG Version: 6.00 Build 0)  -->
<svg version="1.1" id="Layer_1" xmlns="http://www.w3.org/2000/svg" xmlns:xlink="http://www.w3.org/1999/xlink" x="0px" y="0px"
	 viewBox="0 0 160 140" style="enable-background:new 0 0 160 140;" xml:space="preserve">
<style type="text/css">
	.st0{fill:#333333;}
</style>
<g id="Layer_3">
	<g>
		<rect x="89.8" y="95.4" class="st0" width="5.3" height="2.2"/>
		<path class="st0" d="M22.7,108.4c0.2,0.2,0.5,0.3,0.7,0.3c0.3,0,0.6-0.1,0.8-0.4l0,0l14.4-17c0.4,0.8,1,2,1.8,3.3
			c0.2,0.3,0.6,0.5,0.9,0.5c0.2,0,0.4-0.1,0.6-0.2c0.5-0.3,0.7-1,0.3-1.5C40.7,91,40.1,89.4,40,89c-0.1-0.5-0.2-0.9-0.3-1.4
			c-0.4-1.9-0.5-3.8-0.5-5.7c0-0.6,0.2-2,0.5-4.1c1-6,2.4-12.2,4.3-18.2l8.7-27.3c0.9-2.7,3.6-4.4,6.5-3.7l0.1,0
			c2.5,0.6,4.4,2.8,4.4,5.4c0,0.2,0,0.5,0,0.7l-3.8,25.7c-0.1,1,0.1,1.9,0.8,2.6c0.4,0.4,1.4,1.2,3,0.8V91c-1.1,0.4-2.3,0.7-3.4,0.8
			c-0.7,0.1-1.5,0.2-2.2,0.2c-0.6,0-1.1,0.5-1.1,1.1c0,0.6,0.5,1.1,1.1,1.1c0,0,0,0,0,0c0.8,0,1.7-0.1,2.5-0.2
			c1-0.2,2.1-0.4,3.1-0.7v5c0,1.8,1.5,3.3,3.3,3.3h28.7c-5.8,3.9-13.6,8.1-20,9.2c-1.3,0.2-2.6,0.3-3.6,0.3c-0.6,0-1.1,0.4-1.1,1
			c0,0.6,0.4,1.1,1,1.1c0.3,0,0.6,0,0.8,0c0.2,0,0.4,0,0.5,0l-17.6,20.7c0,0,0,0,0,0c-0.4,0.5-0.3,1.1,0.1,1.5
			c0.2,0.2,0.5,0.3,0.7,0.3c0.3,0,0.6-0.1,0.8-0.4l19.1-22.5c7.7-1.5,17.1-6.9,23-11.3h17.8c1.8,0,3.3-1.5,3.3-3.3V86.8
			c0.3,0,0.5,0,0.8,0c0.8,0,1.6-0.1,2.4-0.4l0.9-0.3c1.6-0.6,2.9-1.7,3.6-3.2c0.7-1.5,0.8-3.2,0.3-4.8l-0.6-1.8
			c-1-2.8-3.8-4.5-6.7-4.1c0.5-0.1,1-0.2,1.4-0.3l2.2-0.8c1.6-0.6,2.8-1.7,3.6-3.2c0.7-1.5,0.8-3.2,0.3-4.8l-1.1-3.1
			c-0.7-1.9-2.2-3.3-4-3.9l1-0.4c1.6-0.6,2.8-1.7,3.6-3.2c0.7-1.5,0.8-3.2,0.3-4.8l-1.1-3.1c-1-2.9-4-4.6-6.9-4.1v-0.2l10.4-6.1
			c1.8-1,3.2-2.7,3.8-4.7c0.6-2,0.3-4.1-0.7-6l-0.1-0.1c-2.1-3.8-6.9-5.2-10.7-3.1l-2.7,1.6V7.6c0-1.8-1.5-3.3-3.3-3.3H66.8
			c-1.8,0-3.3,1.5-3.3,3.3v21.1c-1-1.1-2.4-1.9-3.9-2.2l-0.1,0c-3.9-0.8-7.8,1.4-9,5.2l-8.7,27.3c-2,6.1-3.4,12.4-4.4,18.5
			c-0.4,2.3-0.5,3.7-0.5,4.5c0,2,0.2,4.1,0.6,6.1c0.1,0.3,0.1,0.7,0.2,1l-15.2,17.9C22.2,107.4,22.2,108,22.7,108.4z M63.6,61.4
			l-0.2,0.1c-0.9,0.4-1.1,0.1-1.2,0c-0.2-0.2-0.3-0.5-0.2-0.8l1.7-11.4V61.4z M117.1,99.4H66.8c-0.6,0-1.1-0.5-1.1-1.1v-4.7h52.5
			v4.7C118.2,98.9,117.7,99.4,117.1,99.4z M125.7,77.1l0.6,1.8c0.4,1,0.3,2.2-0.2,3.1c-0.5,1-1.3,1.7-2.3,2.1l-0.9,0.3
			c-1.1,0.4-2.2,0.4-3.2,0c-1.5-0.5-2.6-1.6-3.1-3.1l0-0.1c-0.4-1.3-0.4-2.6,0.2-3.8c0.6-1.2,1.6-2.1,2.9-2.5l0.1,0l0.8-0.3
			C122.6,73.8,124.9,74.9,125.7,77.1z M120.4,72.3L120.4,72.3c0.2-0.1,0.4-0.1,0.6-0.1C120.8,72.2,120.6,72.3,120.4,72.3z
			 M125.4,60.7l1.1,3.1c0.4,1,0.3,2.1-0.2,3.1c-0.5,1-1.3,1.7-2.3,2.1l-2.2,0.8c-0.7,0.3-1.5,0.3-2.3,0.2c-1.9-0.2-3.4-1.5-4-3.3
			l-0.5-1.4c-0.4-1.3-0.4-2.6,0.2-3.8c0.6-1.2,1.6-2.1,2.8-2.5l1.7-0.6l0.5-0.2C122.3,57.5,124.7,58.6,125.4,60.7z M125.2,45.4
			l1.1,3.1c0.4,1,0.3,2.1-0.2,3.1c-0.5,1-1.3,1.7-2.3,2.1l-2.2,0.8c-0.7,0.2-1.4,0.3-2.2,0.3c-1.9-0.2-3.5-1.5-4.2-3.3l-0.5-1.4
			c-0.9-2.6,0.5-5.4,3.1-6.3l1.9-0.7c0,0,0,0,0,0l0.4-0.1c0.4-0.2,0.9-0.2,1.4-0.2C123.1,42.7,124.7,43.8,125.2,45.4z M124.2,22.4
			c2.7-1.5,6.2-0.5,7.7,2.2l0.1,0.1c0.7,1.3,0.9,2.9,0.5,4.3c-0.4,1.5-1.4,2.7-2.7,3.4l-9.3,5.5V24.6L124.2,22.4z M66.8,6.5h50.3
			c0.6,0,1.1,0.5,1.1,1.1v3.2H65.7V7.6C65.7,7,66.2,6.5,66.8,6.5z M65.7,12.9h52.5v28.3l-1.1,0.4c-3.7,1.3-5.7,5.4-4.4,9.1l0.5,1.4
			c0.8,2.2,2.6,3.9,4.8,4.5l-0.7,0.3c-1.8,0.6-3.2,1.9-4.1,3.6c-0.8,1.7-0.9,3.7-0.3,5.5l0.5,1.4c0.8,2.2,2.6,3.9,4.9,4.5v1.1
			c-1.5,0.7-2.8,1.9-3.5,3.4c-0.8,1.7-0.9,3.7-0.3,5.5l0,0.1c0.6,1.8,2,3.3,3.8,4.1v5.2H65.7V12.9z"/>
		<path class="st0" d="M77,75.1h31c0.6,0,1.1-0.5,1.1-1.1V43.5c0-0.3-0.1-0.5-0.3-0.7L98.4,31.2c0,0,0,0,0,0c0,0,0,0,0,0
			c0,0,0,0,0,0c0,0,0,0-0.1,0c0,0,0,0,0,0c0,0,0,0-0.1,0c0,0,0,0,0,0c0,0,0,0-0.1,0c0,0,0,0,0,0c0,0-0.1,0-0.1,0c0,0,0,0,0,0
			c0,0-0.1,0-0.1,0c0,0,0,0,0,0c0,0-0.1,0-0.1,0c0,0,0,0,0,0c0,0-0.1,0-0.1,0H77c-0.6,0-1.1,0.5-1.1,1.1V74
			C75.9,74.6,76.4,75.1,77,75.1z M98.7,34.7l7.5,8.5h-7.5V34.7z M78.1,33h18.5v11.3c0,0.6,0.5,1.1,1.1,1.1h9.3v27.5H78.1V33z"/>
		<path class="st0" d="M91.8,65.6c-0.3,0-0.5-0.1-0.7-0.2L83.3,61c-0.7-0.4-1-1.3-0.6-2c0.4-0.7,1.3-1,2-0.6l6.4,3.7l7.3-12.8
			c0.4-0.7,1.3-1,2-0.6c0.7,0.4,1,1.3,0.6,2l-8,14.1C92.9,65.3,92.3,65.6,91.8,65.6z"/>
	</g>
</g>
</svg>
