<?xml version="1.0" encoding="utf-8"?>
<!-- Generator: Adobe Illustrator 22.1.0, SVG Export Plug-In . SVG Version: 6.00 Build 0)  -->
<svg version="1.1" id="Layer_1" xmlns="http://www.w3.org/2000/svg" xmlns:xlink="http://www.w3.org/1999/xlink" x="0px" y="0px"
	 viewBox="0 0 123 36" style="enable-background:new 0 0 123 36;" xml:space="preserve">
<g>
	<path d="M44.2,0c1.7,0,3.3,0.2,4.7,0.5c1.4,0.3,2.6,0.8,3.6,1.5c1,0.7,1.8,1.6,2.3,2.7c0.6,1.1,0.8,2.6,0.8,4.2
		c0,1.8-0.4,3.3-1.2,4.5c-0.8,1.2-2,2.2-3.7,3c2.2,0.6,3.9,1.8,5,3.4c1.1,1.6,1.6,3.5,1.6,5.8c0,1.8-0.4,3.4-1.1,4.7
		c-0.7,1.3-1.7,2.4-2.8,3.3c-1.2,0.8-2.6,1.5-4.1,1.9c-1.5,0.4-3.1,0.6-4.7,0.6H27.3V0H44.2z M43.2,14.6c1.4,0,2.6-0.3,3.5-1
		c0.9-0.7,1.4-1.8,1.4-3.3c0-0.8-0.2-1.5-0.5-2.1c-0.3-0.5-0.7-1-1.2-1.3c-0.5-0.3-1.1-0.5-1.7-0.6c-0.7-0.1-1.3-0.2-2-0.2h-7.4v8.4
		H43.2z M43.6,29.8c0.8,0,1.5-0.1,2.2-0.2c0.7-0.2,1.3-0.4,1.9-0.8c0.5-0.4,1-0.8,1.3-1.4c0.3-0.6,0.5-1.4,0.5-2.3
		c0-1.8-0.5-3.2-1.6-4c-1-0.8-2.4-1.2-4.1-1.2h-8.6v9.9H43.6z"/>
	<path d="M70.7,0v29.3h17.5V36H62.8V0H70.7z"/>
	<path d="M100.5,0l15,24.2h0.1V0h7.4v36h-7.9l-15-24.1h-0.1V36h-7.4V0H100.5z"/>
</g>
<g>
	<g>
		<path d="M11.7,8.7c0.7,0.7,0.7,1.9,0,2.7c-0.7,0.7-1.9,0.7-2.7,0L5.7,8c-0.7-0.7-0.7-1.9,0-2.7c0.7-0.7,1.9-0.7,2.7,0L11.7,8.7z"
			/>
	</g>
	<g>
		<path d="M20.2,6.8c0,1-0.8,1.9-1.9,1.9c-1,0-1.9-0.8-1.9-1.9V2c0-1,0.8-1.9,1.9-1.9c1,0,1.9,0.8,1.9,1.9V6.8z"/>
	</g>
	<g>
		<path d="M16.4,29.2c0-1,0.8-1.9,1.9-1.9c1,0,1.9,0.8,1.9,1.9V34c0,1-0.8,1.9-1.9,1.9c-1,0-1.9-0.8-1.9-1.9V29.2z"/>
	</g>
	<g>
		<path d="M9.1,24.6c0.7-0.7,1.9-0.7,2.7,0c0.7,0.7,0.7,1.9,0,2.7l-3.4,3.4c-0.7,0.7-1.9,0.7-2.7,0c-0.7-0.7-0.7-1.9,0-2.7L9.1,24.6
			z"/>
	</g>
	<g>
		<path d="M7.1,16.1C8.1,16.1,9,17,9,18c0,1-0.8,1.9-1.9,1.9H2.3c-1,0-1.9-0.8-1.9-1.9c0-1,0.8-1.9,1.9-1.9H7.1z"/>
	</g>
</g>
</svg>
